<svg xmlns="http://www.w3.org/2000/svg" xmlns:xlink="http://www.w3.org/1999/xlink" width="2000" zoomAndPan="magnify" viewBox="0 0 1500 1499.999933" height="2000" preserveAspectRatio="xMidYMid meet" version="1.0"><defs><clipPath id="c052f5f175"><path d="M 287.246094 365.621094 L 450.253906 365.621094 L 450.253906 1288.464844 L 287.246094 1288.464844 Z M 287.246094 365.621094 " clip-rule="nonzero"/></clipPath><clipPath id="9f3b8f5f8f"><path d="M 334 359 L 1273 359 L 1273 1297 L 334 1297 Z M 334 359 " clip-rule="nonzero"/></clipPath><clipPath id="400390c093"><path d="M 334.457031 474.464844 L 449.722656 359.199219 L 1272.34375 1181.820312 L 1157.078125 1297.085938 Z M 334.457031 474.464844 " clip-rule="nonzero"/></clipPath><clipPath id="8566877f78"><path d="M 334.457031 474.464844 L 449.722656 359.199219 L 1272.160156 1181.632812 L 1156.894531 1296.898438 Z M 334.457031 474.464844 " clip-rule="nonzero"/></clipPath><clipPath id="8725d19c29"><path d="M 301.628906 1074.945312 L 523.300781 1074.945312 L 523.300781 1288.464844 L 301.628906 1288.464844 Z M 301.628906 1074.945312 " clip-rule="nonzero"/></clipPath><clipPath id="7321bb8f3c"><path d="M 1145.210938 1232.1875 L 1330.113281 1232.1875 L 1330.113281 1288.464844 L 1145.210938 1288.464844 Z M 1145.210938 1232.1875 " clip-rule="nonzero"/></clipPath><clipPath id="d9f0232739"><path d="M 495.253906 1152.730469 L 516.472656 1152.730469 L 516.472656 1174.394531 L 495.253906 1174.394531 Z M 495.253906 1152.730469 " clip-rule="nonzero"/></clipPath><clipPath id="60288bd80c"><path d="M 516.402344 1160.4375 C 516.402344 1167.179688 515.59375 1168.976562 514.605469 1170.238281 C 513.527344 1171.585938 512 1172.753906 510.46875 1173.472656 C 508.941406 1174.101562 507.054688 1174.460938 505.4375 1174.371094 C 503.726562 1174.28125 501.929688 1173.742188 500.492188 1172.84375 C 499.054688 1171.945312 497.703125 1170.597656 496.804688 1169.15625 C 495.996094 1167.71875 495.457031 1165.921875 495.277344 1164.304688 C 495.1875 1162.59375 495.546875 1160.707031 496.265625 1159.179688 C 496.894531 1157.652344 498.152344 1156.121094 499.414062 1155.132812 C 500.761719 1154.054688 502.46875 1153.335938 504.175781 1152.976562 C 505.796875 1152.707031 507.683594 1152.796875 509.300781 1153.335938 C 510.917969 1153.785156 513.707031 1155.941406 513.707031 1155.941406 " clip-rule="nonzero"/></clipPath><clipPath id="c420fac165"><path d="M 510.464844 1067.207031 L 1182 1067.207031 L 1182 1294 L 510.464844 1294 Z M 510.464844 1067.207031 " clip-rule="nonzero"/></clipPath><clipPath id="ebe13f25e7"><path d="M 510.46875 1274.25 C 515.414062 1243.863281 521.4375 1223.457031 525.394531 1211.050781 C 528.179688 1202.0625 530.339844 1195.769531 533.394531 1187.945312 C 536.632812 1179.585938 540.136719 1170.867188 544.273438 1162.414062 C 548.675781 1153.695312 553.351562 1145.335938 559.375 1136.523438 C 566.386719 1126.367188 578.074219 1111.980469 584.457031 1105.417969 C 587.875 1101.914062 589.402344 1100.832031 593.089844 1098.226562 C 598.75 1094.179688 607.742188 1088.246094 616.011719 1084.472656 C 624.554688 1080.515625 636.148438 1077.28125 643.703125 1075.121094 C 648.824219 1073.59375 651.613281 1072.964844 656.738281 1071.976562 C 664.199219 1070.628906 674.175781 1069.097656 683.976562 1068.46875 C 695.664062 1067.660156 712.566406 1067.929688 722.183594 1068.109375 C 728.117188 1068.199219 730.003906 1068.019531 736.476562 1068.648438 C 750.863281 1069.910156 783.765625 1074.042969 804.890625 1078.71875 C 823.769531 1082.855469 846.964844 1090.765625 857.753906 1094.359375 C 862.609375 1095.980469 863.957031 1096.519531 868.089844 1098.316406 C 874.472656 1101.015625 885.710938 1106.496094 891.824219 1109.824219 C 895.78125 1111.980469 897.128906 1113.421875 901.355469 1115.667969 C 908.726562 1119.535156 922.75 1124.746094 933 1129.871094 C 943.066406 1134.996094 954.933594 1142.726562 962.394531 1146.414062 C 966.890625 1148.570312 968.597656 1148.660156 973.363281 1151.089844 C 983.433594 1156.121094 1006.265625 1170.6875 1019.03125 1177.699219 C 1027.933594 1182.644531 1034.945312 1185.160156 1042.226562 1189.835938 C 1049.417969 1194.507812 1055.441406 1199.632812 1062.542969 1205.65625 C 1071.175781 1213.027344 1079.265625 1223.457031 1090.054688 1231.097656 C 1102.28125 1239.730469 1121.609375 1247.101562 1132.9375 1253.933594 C 1140.847656 1258.609375 1146.691406 1265.980469 1152.355469 1266.699219 C 1156.21875 1267.328125 1159.90625 1264.003906 1162.871094 1263.460938 C 1165.03125 1263.101562 1166.738281 1263.101562 1168.535156 1263.191406 C 1169.976562 1263.28125 1171.414062 1263.460938 1172.671875 1263.914062 C 1174.019531 1264.273438 1175.367188 1264.992188 1176.449219 1265.800781 C 1177.617188 1266.699219 1178.605469 1267.6875 1179.414062 1268.855469 C 1180.222656 1270.023438 1180.851562 1271.375 1181.210938 1272.722656 C 1181.570312 1274.070312 1181.75 1275.507812 1181.75 1276.949219 C 1181.660156 1278.296875 1181.390625 1279.734375 1180.851562 1281.082031 C 1180.3125 1282.339844 1179.59375 1283.601562 1178.695312 1284.679688 C 1177.796875 1285.757812 1176.71875 1286.746094 1175.457031 1287.464844 C 1174.289062 1288.183594 1172.941406 1288.8125 1171.59375 1289.085938 C 1170.246094 1289.355469 1168.714844 1289.535156 1167.367188 1289.355469 C 1165.929688 1289.175781 1164.492188 1288.8125 1163.230469 1288.273438 C 1161.972656 1287.644531 1160.714844 1286.835938 1159.726562 1285.9375 C 1158.648438 1284.949219 1157.75 1283.78125 1157.121094 1282.519531 C 1156.488281 1281.351562 1155.949219 1279.914062 1155.769531 1278.566406 C 1155.5 1277.21875 1155.5 1275.6875 1155.679688 1274.339844 C 1155.859375 1272.902344 1156.398438 1271.554688 1157.027344 1270.296875 C 1157.660156 1269.035156 1158.558594 1267.867188 1159.546875 1266.878906 C 1160.535156 1265.890625 1161.792969 1265.082031 1163.050781 1264.453125 C 1164.3125 1263.914062 1165.75 1263.460938 1167.097656 1263.28125 C 1168.445312 1263.101562 1169.976562 1263.191406 1171.324219 1263.460938 C 1172.671875 1263.824219 1174.109375 1264.363281 1175.277344 1265.082031 C 1176.449219 1265.710938 1177.617188 1266.699219 1178.515625 1267.777344 C 1179.414062 1268.765625 1180.222656 1270.117188 1180.761719 1271.375 C 1181.300781 1272.632812 1181.570312 1274.070312 1181.660156 1275.507812 C 1181.75 1276.859375 1181.660156 1278.386719 1181.300781 1279.734375 C 1180.941406 1281.082031 1180.3125 1282.429688 1179.503906 1283.601562 C 1178.785156 1284.769531 1177.796875 1285.847656 1176.628906 1286.65625 C 1175.546875 1287.554688 1174.199219 1288.273438 1172.941406 1288.722656 C 1171.59375 1289.175781 1168.984375 1289.804688 1168.714844 1289.445312 C 1168.535156 1289.085938 1170.785156 1287.285156 1170.605469 1287.015625 C 1170.15625 1286.476562 1161.792969 1292.589844 1157.480469 1293.21875 C 1153.613281 1293.757812 1149.746094 1292.589844 1145.972656 1291.421875 C 1141.65625 1289.984375 1137.25 1287.375 1133.207031 1284.859375 C 1129.160156 1282.339844 1125.652344 1278.566406 1121.699219 1276.226562 C 1117.921875 1274.070312 1114.777344 1273.53125 1110.011719 1271.195312 C 1101.921875 1267.058594 1085.558594 1257.710938 1077.738281 1252.585938 C 1072.972656 1249.4375 1070.1875 1247.28125 1066.679688 1244.222656 C 1063.175781 1241.167969 1060.65625 1237.75 1056.519531 1234.066406 C 1050.859375 1228.851562 1041.6875 1220.941406 1035.574219 1216.445312 C 1031.257812 1213.207031 1029.191406 1212.128906 1023.796875 1208.894531 C 1012.828125 1202.332031 983.703125 1187.226562 972.554688 1180.664062 C 966.980469 1177.429688 964.644531 1175.359375 960.328125 1172.933594 C 955.832031 1170.417969 950.980469 1168.617188 945.855469 1165.832031 C 939.832031 1162.503906 934.976562 1158.550781 926.707031 1153.964844 C 912.5 1146.234375 883.015625 1132.300781 867.550781 1125.375 C 857.753906 1121.0625 852.539062 1118.722656 843.367188 1115.578125 C 831.59375 1111.621094 818.195312 1107.757812 802.644531 1104.429688 C 782.238281 1100.023438 751.042969 1094.902344 731.085938 1093.371094 C 716.96875 1092.203125 706.722656 1092.742188 694.675781 1093.28125 C 682.628906 1093.820312 669.59375 1094.539062 658.894531 1096.609375 C 649.90625 1098.316406 641.183594 1101.375 634.441406 1103.800781 C 629.496094 1105.507812 625.8125 1107.035156 621.855469 1109.015625 C 618.082031 1110.992188 614.753906 1113.148438 611.246094 1115.578125 C 607.5625 1118.183594 604.324219 1120.164062 600.371094 1124.207031 C 593.808594 1130.769531 582.929688 1145.515625 577.714844 1153.246094 C 574.480469 1158.011719 573.398438 1160.167969 570.613281 1165.382812 C 566.117188 1174.011719 559.285156 1187.226562 553.980469 1200.710938 C 547.417969 1217.523438 539.058594 1244.222656 535.371094 1259.058594 C 533.125 1268.046875 533.933594 1276.226562 531.507812 1280.902344 C 529.976562 1283.691406 528.089844 1285.488281 525.84375 1286.476562 C 523.683594 1287.464844 520.359375 1287.644531 518.023438 1286.925781 C 515.683594 1286.117188 513.078125 1284.140625 511.820312 1281.980469 C 510.558594 1279.914062 510.46875 1274.25 510.46875 1274.25 " clip-rule="nonzero"/></clipPath><clipPath id="600d20e42e"><path d="M 483.339844 946.765625 L 890.460938 946.765625 L 890.460938 1102.523438 L 483.339844 1102.523438 Z M 483.339844 946.765625 " clip-rule="nonzero"/></clipPath><clipPath id="0ce49ab296"><path d="M 483.859375 1091.125 C 484.578125 1080.425781 490.152344 1067.300781 492.128906 1058.402344 C 493.929688 1050.308594 494.289062 1041.679688 495.636719 1035.027344 C 496.625 1029.902344 497.703125 1025.949219 499.054688 1021.632812 C 500.402344 1017.496094 501.660156 1014.171875 503.726562 1009.585938 C 506.605469 1003.292969 511.460938 993.222656 515.144531 987.738281 C 517.753906 983.875 519.640625 981.625 522.605469 978.75 C 525.933594 975.332031 529.4375 971.828125 534.292969 968.769531 C 540.675781 964.816406 550.476562 961.578125 558.386719 958.523438 C 565.9375 955.734375 574.480469 953.039062 580.863281 951.242188 C 585.445312 949.890625 589.042969 948.992188 593.089844 948.273438 C 596.953125 947.644531 599.472656 947.375 604.773438 947.195312 C 615.742188 946.65625 638.9375 946.476562 655.660156 947.734375 C 672.109375 949.082031 692.964844 953.757812 704.472656 955.015625 C 710.765625 955.644531 713.015625 955.105469 719.039062 955.824219 C 728.835938 956.996094 746.097656 961.039062 757.695312 962.839844 C 767.132812 964.277344 774.6875 964.636719 783.316406 966.164062 C 792.214844 967.601562 799.226562 969.132812 810.285156 971.828125 C 828.445312 976.234375 873.035156 987.738281 881.757812 991.425781 C 883.734375 992.234375 884.183594 992.414062 885.351562 993.492188 C 886.878906 995.023438 889.128906 997.898438 889.667969 1000.414062 C 890.296875 1002.933594 889.667969 1006.527344 888.949219 1008.597656 C 888.410156 1010.035156 887.871094 1011.023438 886.699219 1012.101562 C 885.082031 1013.542969 882.117188 1015.609375 879.507812 1016.058594 C 876.992188 1016.507812 873.753906 1016.058594 871.417969 1014.890625 C 869.082031 1013.722656 866.832031 1011.382812 865.664062 1009.046875 C 864.496094 1006.707031 864.316406 1003.113281 864.585938 1000.867188 C 864.765625 999.335938 865.214844 998.257812 866.113281 997 C 867.371094 995.203125 869.800781 992.59375 872.226562 991.605469 C 874.652344 990.527344 878.25 990.617188 880.40625 990.976562 C 881.9375 991.246094 883.105469 991.875 884.183594 992.683594 C 885.351562 993.402344 886.429688 994.121094 887.238281 995.472656 C 888.5 997.269531 890.027344 1000.597656 890.027344 1003.203125 C 890.117188 1005.71875 889.128906 1008.867188 887.601562 1011.023438 C 886.070312 1013.09375 882.925781 1014.890625 880.855469 1015.699219 C 879.417969 1016.328125 878.699219 1016.417969 876.722656 1016.238281 C 871.6875 1015.789062 858.921875 1010.214844 850.292969 1007.96875 C 842.109375 1005.808594 834.199219 1005 826.199219 1003.023438 C 818.015625 1000.957031 812.445312 998.167969 801.65625 995.652344 C 782.058594 991.066406 732.703125 982.796875 716.789062 980.996094 C 710.585938 980.367188 709.507812 980.90625 703.753906 980.367188 C 691.976562 979.199219 668.066406 973.984375 650.714844 972.726562 C 634.082031 971.558594 612.417969 971.828125 601.628906 972.816406 C 596.234375 973.355469 593.898438 974.164062 589.671875 975.0625 C 584.726562 976.234375 579.511719 977.3125 573.847656 979.289062 C 566.835938 981.625 557.128906 985.941406 551.285156 988.820312 C 547.328125 990.796875 544.992188 991.515625 541.753906 994.394531 C 536.992188 998.886719 530.519531 1009.226562 527.371094 1015.25 C 525.214844 1019.292969 524.585938 1022.261719 523.234375 1026.039062 C 521.886719 1030.082031 520.359375 1034.488281 519.371094 1038.625 C 518.472656 1042.667969 518.5625 1046.085938 517.390625 1050.671875 C 515.683594 1057.054688 511.1875 1066.582031 509.121094 1073.144531 C 507.59375 1078 506.605469 1082.046875 505.886719 1086.089844 C 505.167969 1089.6875 505.886719 1093.640625 504.535156 1096.25 C 503.277344 1098.585938 500.761719 1100.472656 498.691406 1101.375 C 496.984375 1102.183594 495.277344 1102.363281 493.480469 1102.09375 C 491.320312 1101.644531 488.175781 1100.203125 486.558594 1098.40625 C 485.027344 1096.609375 483.859375 1091.125 483.859375 1091.125 " clip-rule="nonzero"/></clipPath><clipPath id="9546bd48b3"><path d="M 1207 1146 L 1331 1146 L 1331 1274 L 1207 1274 Z M 1207 1146 " clip-rule="nonzero"/></clipPath><clipPath id="2de2ab5331"><path d="M 1173.296875 1166.132812 L 1295.714844 1126.558594 L 1330.292969 1233.515625 L 1207.875 1273.09375 Z M 1173.296875 1166.132812 " clip-rule="nonzero"/></clipPath><clipPath id="90f7b8ae6c"><path d="M 1234.414062 1146.375 L 1330.113281 1233.574219 L 1207.875 1273.09375 Z M 1234.414062 1146.375 " clip-rule="nonzero"/></clipPath><clipPath id="b7b717acc0"><path d="M 487.722656 967.242188 L 1142 967.242188 L 1142 1253.757812 L 487.722656 1253.757812 Z M 487.722656 967.242188 " clip-rule="nonzero"/></clipPath><clipPath id="096a11ae49"><path d="M 487.726562 1190.554688 C 487.816406 1185.878906 487.816406 1183.542969 487.90625 1183.542969 C 487.90625 1183.273438 488.445312 1156.03125 490.691406 1143.804688 C 492.671875 1132.929688 498.242188 1122.050781 499.683594 1113.417969 C 500.761719 1107.398438 499.953125 1103.53125 500.582031 1097.507812 C 501.300781 1089.867188 502.109375 1080.425781 504.445312 1071.167969 C 507.054688 1060.378906 512.539062 1047.164062 516.402344 1037.003906 C 519.640625 1028.554688 522.515625 1018.933594 525.84375 1014.351562 C 527.730469 1011.742188 531.058594 1011.382812 531.6875 1009.226562 C 532.40625 1006.800781 528.898438 1003.921875 529.167969 1000.324219 C 529.796875 994.121094 534.113281 980.996094 541.125 975.605469 C 549.21875 969.3125 569.085938 967.332031 577.894531 968.140625 C 583.019531 968.589844 588.324219 973.175781 589.761719 972.90625 C 590.121094 972.90625 590.03125 972.546875 590.390625 972.457031 C 592.726562 971.46875 607.113281 970.480469 615.5625 970.03125 C 624.101562 969.492188 632.105469 969.039062 641.363281 969.492188 C 652.152344 970.121094 665.1875 973.804688 676.15625 973.984375 C 685.953125 974.074219 694.40625 971.289062 703.933594 971.199219 C 713.914062 971.199219 724.429688 972.277344 734.859375 973.984375 C 745.917969 975.785156 757.515625 980.726562 768.484375 981.988281 C 778.550781 983.066406 788.621094 980.726562 798.058594 981.535156 C 806.871094 982.347656 814.511719 984.863281 823.320312 986.390625 C 832.761719 988.101562 843.730469 988.820312 852.988281 991.15625 C 861.4375 993.3125 868.8125 996.730469 876.632812 999.425781 C 884.542969 1002.125 892.453125 1003.652344 900.277344 1007.25 C 908.636719 1011.203125 917.265625 1016.507812 925.085938 1022.53125 C 933.269531 1028.914062 941.71875 1037.003906 948.101562 1044.648438 C 953.765625 1051.480469 957.8125 1059.210938 962.125 1065.683594 C 965.902344 1071.257812 967.699219 1076.921875 972.464844 1081.144531 C 977.949219 1086 986.578125 1087.886719 994.128906 1092.113281 C 1002.671875 1096.878906 1012.648438 1102.722656 1020.832031 1108.476562 C 1028.292969 1113.78125 1036.203125 1120.882812 1041.238281 1125.015625 C 1044.203125 1127.445312 1045.195312 1128.792969 1048.339844 1130.859375 C 1053.285156 1134.097656 1062.273438 1136.972656 1069.195312 1141.199219 C 1076.660156 1145.695312 1084.570312 1151.808594 1091.402344 1157.472656 C 1097.964844 1162.953125 1103.808594 1168.078125 1109.652344 1174.460938 C 1115.945312 1181.472656 1122.597656 1192.171875 1127.632812 1198.105469 C 1130.957031 1201.972656 1136.261719 1207.09375 1136.351562 1207.09375 C 1136.351562 1207.183594 1137.519531 1209.164062 1138.058594 1210.242188 C 1138.691406 1211.230469 1139.769531 1213.296875 1139.769531 1213.296875 C 1139.859375 1213.386719 1140.398438 1215.546875 1140.757812 1216.714844 C 1141.027344 1217.882812 1141.65625 1220.042969 1141.65625 1220.132812 C 1141.65625 1220.132812 1141.746094 1222.46875 1141.746094 1223.636719 C 1141.835938 1224.804688 1141.835938 1227.144531 1141.835938 1227.234375 C 1141.835938 1227.234375 1141.386719 1229.480469 1141.117188 1230.648438 C 1140.847656 1231.816406 1140.398438 1234.066406 1140.308594 1234.066406 C 1140.308594 1234.15625 1139.320312 1236.222656 1138.78125 1237.300781 C 1138.242188 1238.289062 1137.25 1240.359375 1137.25 1240.449219 C 1137.160156 1240.449219 1135.722656 1242.246094 1134.914062 1243.144531 C 1134.195312 1244.042969 1132.667969 1245.84375 1132.667969 1245.84375 C 1132.667969 1245.84375 1130.777344 1247.28125 1129.789062 1247.910156 C 1128.890625 1248.628906 1127.003906 1249.976562 1126.914062 1249.976562 C 1126.914062 1249.976562 1126.285156 1250.246094 1126.285156 1250.246094 C 1126.285156 1250.335938 1126.375 1250.335938 1126.375 1250.335938 C 1126.375 1250.335938 1126.285156 1250.335938 1126.195312 1250.335938 C 1125.925781 1250.335938 1124.574219 1250.964844 1123.675781 1251.324219 C 1122.6875 1251.777344 1120.441406 1252.675781 1120.441406 1252.675781 C 1120.351562 1252.675781 1118.101562 1253.035156 1116.933594 1253.214844 C 1115.765625 1253.394531 1113.429688 1253.753906 1113.429688 1253.753906 C 1113.339844 1253.753906 1111.089844 1253.484375 1109.921875 1253.394531 C 1108.753906 1253.304688 1106.414062 1253.035156 1106.414062 1253.035156 C 1106.324219 1253.035156 1104.167969 1252.226562 1103.089844 1251.867188 C 1101.921875 1251.507812 1099.761719 1250.695312 1099.671875 1250.695312 C 1099.671875 1250.695312 1099.492188 1250.425781 1099.132812 1250.335938 C 1097.964844 1249.976562 1093.019531 1251.597656 1089.425781 1250.335938 C 1083.671875 1248.269531 1076.390625 1240.628906 1069.558594 1234.15625 C 1061.015625 1226.0625 1051.667969 1213.660156 1042.855469 1204.667969 C 1034.765625 1196.488281 1023.347656 1186.417969 1018.851562 1182.28125 C 1017.054688 1180.664062 1016.425781 1179.855469 1015.078125 1179.046875 C 1013.910156 1178.238281 1013.28125 1178.058594 1011.570312 1177.339844 C 1006.988281 1175.359375 994.3125 1171.765625 986.21875 1167.539062 C 977.679688 1163.132812 968.328125 1156.480469 961.765625 1151.269531 C 956.644531 1147.222656 953.675781 1140.390625 949.179688 1139.671875 C 945.136719 1139.042969 941.359375 1145.515625 936.144531 1145.695312 C 928.683594 1145.964844 917.714844 1139.222656 908.636719 1135.445312 C 899.554688 1131.667969 889.757812 1127.625 881.578125 1122.949219 C 874.113281 1118.542969 868.628906 1112.96875 861.257812 1108.476562 C 853.257812 1103.710938 844.179688 1098.765625 835.1875 1095.351562 C 826.289062 1091.933594 816.847656 1090.675781 807.679688 1087.976562 C 798.507812 1085.371094 789.339844 1081.234375 780.078125 1079.4375 C 771.359375 1077.730469 762.371094 1077.550781 753.828125 1077.101562 C 745.558594 1076.742188 737.648438 1077.101562 729.464844 1077.101562 C 721.105469 1077.011719 712.566406 1077.101562 704.023438 1077.011719 C 695.214844 1077.011719 686.222656 1077.011719 677.414062 1077.011719 C 668.875 1077.011719 660.152344 1075.390625 652.0625 1077.011719 C 644.152344 1078.539062 637.230469 1082.945312 629.496094 1086.269531 C 621.226562 1089.957031 612.058594 1093.640625 603.964844 1098.136719 C 595.964844 1102.542969 586.433594 1106.496094 581.132812 1112.96875 C 576.1875 1119.171875 575.46875 1128.164062 572.410156 1135.804688 C 569.355469 1143.355469 566.476562 1150.546875 562.972656 1158.460938 C 559.015625 1167.449219 553.171875 1181.203125 549.757812 1186.597656 C 548.226562 1189.117188 546.429688 1190.015625 545.621094 1191.542969 C 545.082031 1192.710938 545.082031 1193.878906 544.722656 1194.960938 C 544.453125 1196.128906 543.824219 1198.285156 543.824219 1198.375 C 543.824219 1198.375 542.746094 1200.441406 542.113281 1201.433594 C 541.574219 1202.511719 540.496094 1204.488281 540.496094 1204.578125 C 540.40625 1204.578125 538.878906 1206.285156 538.070312 1207.09375 C 537.261719 1207.996094 535.730469 1209.703125 535.730469 1209.703125 C 535.640625 1209.792969 533.753906 1211.050781 532.765625 1211.679688 C 531.777344 1212.308594 529.886719 1213.566406 529.886719 1213.566406 C 529.796875 1213.660156 527.640625 1214.378906 526.5625 1214.828125 C 525.484375 1215.1875 523.234375 1215.996094 523.234375 1215.996094 C 523.144531 1215.996094 520.898438 1216.265625 519.730469 1216.355469 C 518.5625 1216.445312 516.3125 1216.714844 516.222656 1216.714844 C 516.222656 1216.714844 513.886719 1216.355469 512.71875 1216.265625 C 511.640625 1216.085938 509.300781 1215.726562 509.300781 1215.726562 C 509.210938 1215.726562 507.054688 1214.828125 505.976562 1214.46875 C 504.894531 1214.019531 502.738281 1213.117188 502.738281 1213.117188 C 502.738281 1213.117188 500.851562 1211.769531 499.863281 1211.050781 C 498.964844 1210.421875 497.074219 1209.074219 496.984375 1208.984375 C 496.984375 1208.984375 495.546875 1207.273438 494.738281 1206.375 C 494.019531 1205.476562 492.492188 1203.679688 492.492188 1203.679688 C 492.398438 1203.679688 491.410156 1201.613281 490.871094 1200.53125 C 490.332031 1199.453125 489.34375 1197.476562 489.34375 1197.386719 C 489.253906 1197.386719 488.804688 1195.140625 488.535156 1193.96875 C 488.265625 1192.800781 487.726562 1190.554688 487.726562 1190.554688 " clip-rule="nonzero"/></clipPath><clipPath id="603e2e9af1"><path d="M 179 234 L 524 234 L 524 479 L 179 479 Z M 179 234 " clip-rule="nonzero"/></clipPath><clipPath id="8acf1b78b4"><path d="M 150 257.214844 L 493.785156 210.925781 L 523.632812 432.609375 L 179.847656 478.898438 Z M 150 257.214844 " clip-rule="nonzero"/></clipPath><clipPath id="ac69acd63e"><path d="M 321.726562 234.09375 L 523.300781 432.65625 L 179.847656 478.898438 Z M 321.726562 234.09375 " clip-rule="nonzero"/></clipPath><clipPath id="7199e93118"><path d="M 173.667969 232.96875 L 429.964844 232.96875 L 429.964844 456.902344 L 173.667969 456.902344 Z M 173.667969 232.96875 " clip-rule="nonzero"/></clipPath><clipPath id="83de2dfd35"><path d="M 301.628906 232.96875 L 429.589844 456.902344 L 173.667969 456.902344 Z M 301.628906 232.96875 " clip-rule="nonzero"/></clipPath><clipPath id="97a28e946c"><path d="M 225 199 L 475 199 L 475 448 L 225 448 Z M 225 199 " clip-rule="nonzero"/></clipPath><clipPath id="1649e9109d"><path d="M 173.667969 229.34375 L 423.007812 170.03125 L 474.832031 387.882812 L 225.492188 447.195312 Z M 173.667969 229.34375 " clip-rule="nonzero"/></clipPath><clipPath id="4b5c656e12"><path d="M 298.15625 199.730469 L 474.464844 387.96875 L 225.492188 447.195312 Z M 298.15625 199.730469 " clip-rule="nonzero"/></clipPath><clipPath id="905b621f7d"><path d="M 166.460938 199.085938 L 287.246094 199.085938 L 287.246094 738.484375 L 166.460938 738.484375 Z M 166.460938 199.085938 " clip-rule="nonzero"/></clipPath><clipPath id="a1eb0b5552"><path d="M 528.304688 990.816406 L 563.851562 990.816406 L 563.851562 1030.828125 L 528.304688 1030.828125 Z M 528.304688 990.816406 " clip-rule="nonzero"/></clipPath><clipPath id="43ce9ed87d"><path d="M 528.898438 1023.609375 C 527.460938 1006.527344 529.078125 1003.023438 531.867188 1000.054688 C 535.460938 996.371094 543.464844 992.59375 548.226562 991.335938 C 551.554688 990.527344 554.96875 990.796875 557.039062 991.335938 C 558.207031 991.605469 558.835938 991.875 559.734375 992.59375 C 560.992188 993.671875 562.613281 995.921875 563.242188 997.359375 C 563.691406 998.4375 563.78125 999.246094 563.691406 1000.414062 C 563.511719 1001.945312 562.792969 1004.460938 561.625 1005.988281 C 560.453125 1007.429688 558.207031 1008.6875 556.679688 1009.136719 C 555.601562 1009.585938 554.789062 1009.585938 553.710938 1009.40625 C 552.09375 1009.226562 549.488281 1008.058594 548.226562 1007.160156 C 547.328125 1006.4375 546.789062 1005.628906 546.339844 1004.820312 C 545.890625 1003.921875 545.441406 1003.113281 545.261719 1002.035156 C 545.082031 1000.414062 545.261719 997.808594 546.070312 996.101562 C 546.878906 994.484375 548.855469 992.773438 550.207031 991.875 C 551.195312 991.335938 551.914062 991.066406 553.082031 990.976562 C 554.699219 990.886719 557.21875 991.15625 558.925781 992.054688 C 560.542969 992.953125 562.164062 994.753906 562.882812 996.460938 C 563.601562 998.167969 563.871094 1000.507812 563.421875 1002.394531 C 562.972656 1004.191406 561.351562 1006.257812 560.273438 1007.339844 C 559.464844 1008.148438 558.746094 1008.597656 557.667969 1008.867188 C 556.140625 1009.316406 553.621094 1008.328125 551.734375 1009.136719 C 549.398438 1010.125 546.160156 1013 545.171875 1015.609375 C 544.273438 1018.125 546.609375 1021.992188 545.890625 1024.417969 C 545.261719 1026.398438 543.554688 1028.285156 542.113281 1029.363281 C 540.945312 1030.171875 539.507812 1030.53125 538.160156 1030.710938 C 536.8125 1030.800781 535.28125 1030.53125 534.023438 1029.992188 C 532.765625 1029.453125 531.507812 1028.464844 530.699219 1027.476562 C 529.796875 1026.398438 528.898438 1023.609375 528.898438 1023.609375 " clip-rule="nonzero"/></clipPath><clipPath id="f0749090f0"><path d="M 940.136719 1215.109375 L 1185.828125 1215.109375 L 1185.828125 1318 L 940.136719 1318 Z M 940.136719 1215.109375 " clip-rule="nonzero"/></clipPath><clipPath id="ccaa76b282"><path d="M 948.820312 1215.277344 C 979.925781 1215.726562 981.363281 1215.726562 985.769531 1216.535156 C 994.582031 1218.242188 1014.628906 1223.367188 1025.324219 1227.234375 C 1033.058594 1230.019531 1037.011719 1232.898438 1044.65625 1235.863281 C 1055.441406 1240.089844 1072.792969 1243.683594 1084.210938 1249.257812 C 1094.097656 1254.113281 1101.742188 1262.023438 1109.921875 1266.25 C 1116.664062 1269.664062 1121.519531 1270.113281 1129.429688 1273.710938 C 1142.644531 1279.554688 1174.558594 1294.386719 1180.941406 1299.960938 C 1182.742188 1301.582031 1183.191406 1302.300781 1183.730469 1303.917969 C 1184.359375 1305.894531 1184.539062 1309.042969 1183.820312 1311.199219 C 1183.011719 1313.265625 1180.761719 1315.515625 1179.054688 1316.59375 C 1177.527344 1317.492188 1176.179688 1317.851562 1174.289062 1317.851562 C 1171.414062 1317.761719 1168.355469 1316.234375 1163.503906 1314.4375 C 1153.164062 1310.480469 1128.710938 1299.78125 1115.496094 1292.949219 C 1105.785156 1287.914062 1100.84375 1283.960938 1090.953125 1278.476562 C 1076.300781 1270.203125 1043.214844 1256.539062 1035.394531 1249.167969 C 1032.609375 1246.5625 1031.890625 1244.042969 1031.257812 1242.246094 C 1030.898438 1241.257812 1030.808594 1240.808594 1030.808594 1239.820312 C 1030.988281 1238.109375 1031.980469 1234.605469 1033.238281 1232.988281 C 1034.226562 1231.546875 1035.664062 1230.648438 1037.101562 1230.019531 C 1038.632812 1229.480469 1040.25 1229.03125 1041.957031 1229.300781 C 1044.023438 1229.660156 1046.992188 1231.007812 1048.519531 1232.445312 C 1049.6875 1233.617188 1051.128906 1236.582031 1050.859375 1236.761719 C 1050.585938 1236.941406 1043.214844 1230.199219 1043.664062 1229.210938 C 1044.203125 1228.222656 1050.226562 1229.390625 1054.003906 1230.738281 C 1059.128906 1232.535156 1066.949219 1237.660156 1071.175781 1240.988281 C 1074.050781 1243.234375 1074.769531 1245.664062 1077.738281 1247.640625 C 1082.144531 1250.515625 1090.324219 1251.867188 1095.898438 1255.011719 C 1101.5625 1258.25 1106.863281 1263.730469 1111.539062 1266.789062 C 1114.957031 1268.945312 1117.113281 1270.113281 1120.800781 1271.824219 C 1126.015625 1274.339844 1133.925781 1276.679688 1139.949219 1279.554688 C 1145.792969 1282.339844 1150.644531 1286.386719 1156.667969 1288.722656 C 1163.140625 1291.152344 1177.257812 1294.566406 1177.707031 1293.667969 C 1177.886719 1293.398438 1175.457031 1292.050781 1175.636719 1291.78125 C 1175.726562 1291.511719 1178.964844 1292.410156 1180.3125 1293.128906 C 1181.660156 1293.9375 1183.011719 1295.195312 1183.910156 1296.546875 C 1184.71875 1297.894531 1185.347656 1299.601562 1185.4375 1301.21875 C 1185.617188 1302.75 1185.257812 1304.546875 1184.71875 1306.074219 C 1184.089844 1307.511719 1183.101562 1308.953125 1181.75 1310.03125 C 1180.042969 1311.199219 1177.796875 1311.917969 1174.828125 1312.277344 C 1169.707031 1312.996094 1157.839844 1312.726562 1153.253906 1311.019531 C 1150.734375 1310.121094 1149.117188 1308.414062 1148.039062 1307.0625 C 1147.230469 1306.074219 1146.871094 1305.265625 1146.691406 1304.007812 C 1146.332031 1302.300781 1146.242188 1299.421875 1147.050781 1297.445312 C 1147.769531 1295.558594 1149.835938 1293.488281 1151.277344 1292.5 C 1152.265625 1291.691406 1153.074219 1291.421875 1154.332031 1291.242188 C 1156.128906 1290.972656 1159.007812 1291.0625 1160.894531 1291.960938 C 1162.78125 1292.859375 1164.671875 1295.015625 1165.660156 1296.457031 C 1166.289062 1297.535156 1166.558594 1298.34375 1166.738281 1299.601562 C 1166.828125 1301.398438 1166.648438 1304.277344 1165.660156 1306.074219 C 1164.671875 1307.964844 1162.421875 1309.761719 1160.894531 1310.570312 C 1159.816406 1311.199219 1158.917969 1311.46875 1157.660156 1311.46875 C 1155.859375 1311.558594 1153.074219 1311.109375 1151.277344 1310.121094 C 1149.476562 1309.042969 1147.769531 1306.972656 1147.050781 1305.085938 C 1146.242188 1303.109375 1146.0625 1300.5 1146.691406 1298.523438 C 1147.230469 1296.546875 1148.667969 1294.386719 1150.375 1293.128906 C 1151.996094 1291.871094 1154.242188 1291.421875 1156.578125 1290.972656 C 1159.457031 1290.523438 1162.78125 1290.703125 1166.378906 1290.972656 C 1170.605469 1291.332031 1177.347656 1291.691406 1180.3125 1293.128906 C 1182.109375 1294.027344 1183.011719 1295.195312 1183.910156 1296.546875 C 1184.71875 1297.894531 1185.347656 1299.601562 1185.4375 1301.21875 C 1185.617188 1302.75 1185.4375 1304.546875 1184.71875 1306.074219 C 1183.730469 1307.964844 1181.480469 1310.300781 1179.683594 1311.289062 C 1178.15625 1312.1875 1177.078125 1312.367188 1174.828125 1312.277344 C 1169.976562 1312.277344 1160.355469 1310.300781 1151.546875 1307.421875 C 1139.320312 1303.46875 1117.113281 1292.769531 1108.84375 1288.453125 C 1105.246094 1286.566406 1104.167969 1285.847656 1101.382812 1283.871094 C 1097.335938 1281.082031 1092.480469 1275.777344 1087.265625 1272.722656 C 1081.871094 1269.664062 1074.859375 1268.675781 1069.464844 1265.53125 C 1064.164062 1262.472656 1060.65625 1257.890625 1054.992188 1254.292969 C 1048.25 1249.976562 1033.6875 1246.652344 1031.257812 1242.246094 C 1029.910156 1240 1030.898438 1237.03125 1031.890625 1235.054688 C 1032.878906 1232.988281 1035.035156 1230.917969 1037.101562 1230.019531 C 1039.261719 1229.210938 1042.40625 1229.300781 1044.386719 1229.839844 C 1046.003906 1230.289062 1047.441406 1231.277344 1048.519531 1232.445312 C 1049.597656 1233.617188 1051.128906 1236.492188 1050.859375 1236.761719 C 1050.585938 1236.941406 1046.453125 1233.527344 1046.542969 1233.4375 C 1046.8125 1233.078125 1057.78125 1239.820312 1064.523438 1243.234375 C 1072.882812 1247.460938 1083.851562 1251.777344 1093.109375 1256.808594 C 1102.460938 1261.84375 1111.359375 1268.675781 1120.441406 1273.53125 C 1128.800781 1277.9375 1136.351562 1281.082031 1145.34375 1284.949219 C 1155.679688 1289.445312 1172.941406 1294.386719 1178.875 1298.523438 C 1181.570312 1300.410156 1182.921875 1301.851562 1183.730469 1303.917969 C 1184.539062 1305.984375 1184.539062 1309.042969 1183.820312 1311.199219 C 1183.011719 1313.265625 1181.03125 1315.515625 1179.054688 1316.59375 C 1177.078125 1317.671875 1174.46875 1318.03125 1171.863281 1317.582031 C 1168.085938 1316.773438 1163.140625 1312.097656 1159.1875 1310.300781 C 1155.949219 1308.863281 1153.972656 1308.953125 1150.015625 1307.332031 C 1142.285156 1304.097656 1126.195312 1294.476562 1116.753906 1290.074219 C 1110.011719 1286.925781 1105.425781 1285.847656 1099.132812 1282.519531 C 1091.132812 1278.296875 1081.332031 1269.484375 1073.242188 1265.621094 C 1067.039062 1262.652344 1062.363281 1262.5625 1055.710938 1260.046875 C 1046.453125 1256.539062 1034.585938 1250.15625 1023.257812 1246.023438 C 1011.390625 1241.617188 994.582031 1236.941406 986.039062 1234.695312 C 981.542969 1233.527344 980.015625 1232.988281 975.703125 1232.535156 C 968.957031 1231.816406 953.855469 1233.257812 948.820312 1232.71875 C 946.933594 1232.445312 946.035156 1232.445312 944.777344 1231.726562 C 943.335938 1230.738281 941.449219 1228.851562 940.730469 1227.054688 C 940.011719 1225.253906 940.011719 1222.738281 940.730469 1220.941406 C 941.449219 1219.140625 943.335938 1217.253906 944.777344 1216.265625 C 946.035156 1215.546875 948.820312 1215.277344 948.820312 1215.277344 " clip-rule="nonzero"/></clipPath><clipPath id="d584a66087"><path d="M 510.683594 1195.921875 L 529.535156 1195.921875 L 529.535156 1228.835938 L 510.683594 1228.835938 Z M 510.683594 1195.921875 " clip-rule="nonzero"/></clipPath><clipPath id="00a7d6e0f0"><path d="M 528.449219 1203.949219 C 529.167969 1222.199219 528.539062 1223.996094 527.730469 1225.34375 C 527.101562 1226.242188 526.382812 1226.785156 525.574219 1227.324219 C 524.855469 1227.863281 524.046875 1228.3125 522.964844 1228.492188 C 521.527344 1228.851562 519.011719 1228.941406 517.300781 1228.222656 C 515.683594 1227.59375 513.886719 1226.152344 512.988281 1224.625 C 512 1223.097656 511.640625 1220.582031 511.730469 1219.050781 C 511.730469 1217.972656 511.910156 1217.253906 512.449219 1216.265625 C 513.257812 1214.917969 515.054688 1212.9375 516.3125 1212.128906 C 517.300781 1211.5 518.023438 1211.320312 519.101562 1211.230469 C 520.628906 1211.050781 523.144531 1211.230469 524.675781 1212.039062 C 526.292969 1212.9375 527.910156 1214.828125 528.628906 1216.175781 C 529.167969 1217.164062 529.347656 1217.972656 529.4375 1218.960938 C 529.527344 1219.859375 529.617188 1220.761719 529.257812 1221.839844 C 528.808594 1223.277344 527.460938 1225.613281 526.382812 1226.695312 C 525.574219 1227.503906 524.945312 1227.863281 523.957031 1228.222656 C 522.425781 1228.671875 520 1229.03125 518.203125 1228.582031 C 516.492188 1228.042969 514.605469 1226.785156 513.527344 1225.433594 C 512.449219 1223.996094 512.089844 1222.378906 511.640625 1220.039062 C 510.917969 1215.996094 510.199219 1207.183594 511.1875 1203.320312 C 511.820312 1200.890625 512.988281 1199.183594 514.246094 1197.925781 C 515.324219 1196.9375 516.671875 1196.398438 518.023438 1196.128906 C 519.28125 1195.859375 520.808594 1195.859375 522.15625 1196.308594 C 523.863281 1196.9375 526.023438 1198.554688 527.101562 1199.992188 C 528 1201.160156 528.449219 1203.949219 528.449219 1203.949219 " clip-rule="nonzero"/></clipPath><clipPath id="26c84ac575"><path d="M 1126 1099 L 1388 1099 L 1388 1362 L 1126 1362 Z M 1126 1099 " clip-rule="nonzero"/></clipPath><clipPath id="0488a7b054"><path d="M 1417.867188 1153.058594 L 1356.09375 1415.996094 L 1126.359375 1362.023438 L 1188.132812 1099.085938 Z M 1417.867188 1153.058594 " clip-rule="nonzero"/></clipPath><clipPath id="8f6f2309bc"><path d="M 1387.023438 1284.335938 L 1126.449219 1361.636719 L 1188.132812 1099.085938 Z M 1387.023438 1284.335938 " clip-rule="nonzero"/></clipPath><clipPath id="d74799b500"><path d="M 1126.449219 1288.464844 L 1490.058594 1288.464844 L 1490.058594 1500 L 1126.449219 1500 Z M 1126.449219 1288.464844 " clip-rule="nonzero"/></clipPath><clipPath id="0c0282e05e"><path d="M 1135.542969 1264.808594 L 1159.628906 1264.808594 L 1159.628906 1286.972656 L 1135.542969 1286.972656 Z M 1135.542969 1264.808594 " clip-rule="nonzero"/></clipPath><clipPath id="789604625b"><path d="M 1145.074219 1284.589844 C 1137.25 1279.105469 1136.53125 1278.027344 1135.992188 1276.769531 C 1135.542969 1275.417969 1135.453125 1273.890625 1135.632812 1272.542969 C 1135.8125 1271.195312 1136.351562 1269.664062 1137.160156 1268.585938 C 1137.96875 1267.507812 1139.230469 1266.429688 1140.398438 1265.800781 C 1141.65625 1265.261719 1143.183594 1264.902344 1144.53125 1264.902344 C 1145.972656 1264.902344 1148.488281 1265.53125 1148.667969 1265.980469 C 1148.757812 1266.25 1147.769531 1266.609375 1147.859375 1266.878906 C 1148.039062 1267.238281 1149.746094 1266.96875 1150.734375 1267.507812 C 1152.085938 1268.136719 1154.152344 1269.574219 1155.050781 1271.105469 C 1156.039062 1272.632812 1156.398438 1275.058594 1156.308594 1276.589844 C 1156.308594 1277.667969 1156.128906 1278.476562 1155.589844 1279.375 C 1154.871094 1280.722656 1153.34375 1282.699219 1151.726562 1283.511719 C 1150.195312 1284.410156 1147.949219 1284.769531 1146.152344 1284.5 C 1144.351562 1284.230469 1142.285156 1282.972656 1141.117188 1281.890625 C 1140.308594 1281.171875 1139.859375 1280.542969 1139.5 1279.554688 C 1138.960938 1278.117188 1138.601562 1275.417969 1138.78125 1273.890625 C 1138.960938 1272.8125 1139.230469 1272.09375 1139.859375 1271.285156 C 1140.757812 1270.023438 1142.734375 1268.226562 1144.082031 1267.507812 C 1145.074219 1267.058594 1145.882812 1266.878906 1146.960938 1266.878906 C 1148.488281 1266.878906 1151.097656 1267.597656 1152.445312 1268.316406 C 1153.34375 1268.855469 1153.972656 1269.574219 1154.511719 1270.292969 C 1155.050781 1271.015625 1155.589844 1271.734375 1155.859375 1272.8125 C 1156.308594 1274.339844 1156.488281 1276.769531 1155.949219 1278.476562 C 1155.410156 1280.183594 1154.0625 1282.070312 1152.535156 1283.0625 C 1151.097656 1284.050781 1149.027344 1284.769531 1147.140625 1284.589844 C 1144.894531 1284.5 1141.925781 1282.699219 1140.128906 1281.53125 C 1138.78125 1280.632812 1137.699219 1279.914062 1136.980469 1278.65625 C 1136.082031 1277.039062 1135.453125 1274.339844 1135.632812 1272.542969 C 1135.722656 1271.015625 1136.351562 1269.664062 1137.160156 1268.585938 C 1137.96875 1267.507812 1139.230469 1266.429688 1140.398438 1265.800781 C 1141.65625 1265.261719 1143.183594 1264.902344 1144.53125 1264.902344 C 1145.972656 1264.902344 1147.230469 1265.351562 1148.667969 1265.980469 C 1150.375 1266.789062 1152.445312 1267.957031 1154.152344 1269.394531 C 1155.949219 1270.925781 1158.109375 1273.171875 1159.007812 1275.058594 C 1159.546875 1276.496094 1159.636719 1277.847656 1159.457031 1279.195312 C 1159.277344 1280.542969 1158.917969 1281.980469 1158.019531 1283.0625 C 1156.847656 1284.5 1154.601562 1286.027344 1152.894531 1286.566406 C 1151.546875 1287.015625 1150.015625 1286.925781 1148.757812 1286.566406 C 1147.410156 1286.207031 1145.074219 1284.589844 1145.074219 1284.589844 " clip-rule="nonzero"/></clipPath><clipPath id="e1529eb20a"><path d="M 1042.648438 1209.671875 L 1157.730469 1209.671875 L 1157.730469 1287.496094 L 1042.648438 1287.496094 Z M 1042.648438 1209.671875 " clip-rule="nonzero"/></clipPath><clipPath id="d832fab0dc"><path d="M 1143.542969 1285.398438 C 1090.144531 1254.292969 1077.46875 1251.054688 1071.085938 1247.640625 C 1067.667969 1245.933594 1066.589844 1244.941406 1063.804688 1242.875 C 1059.667969 1239.730469 1052.027344 1233.707031 1048.609375 1230.378906 C 1046.632812 1228.402344 1045.375 1227.054688 1044.386719 1225.34375 C 1043.574219 1223.816406 1043.035156 1222.289062 1042.945312 1220.761719 C 1042.855469 1219.140625 1043.125 1217.433594 1043.753906 1215.996094 C 1044.386719 1214.558594 1045.464844 1213.117188 1046.722656 1212.128906 C 1047.980469 1211.140625 1049.597656 1210.421875 1051.128906 1210.0625 C 1052.65625 1209.792969 1054.453125 1209.882812 1055.980469 1210.332031 C 1057.421875 1210.78125 1060.207031 1212.667969 1060.117188 1212.847656 C 1060.027344 1213.117188 1051.667969 1210.152344 1051.667969 1210.0625 C 1051.757812 1209.972656 1057.152344 1210.691406 1061.285156 1212.398438 C 1070.457031 1216.355469 1092.300781 1232.535156 1103.179688 1238.648438 C 1109.921875 1242.335938 1115.40625 1244.3125 1119.902344 1246.832031 C 1123.046875 1248.628906 1124.933594 1250.515625 1127.632812 1251.867188 C 1130.238281 1253.125 1132.847656 1253.214844 1135.8125 1254.742188 C 1140.039062 1256.808594 1146.691406 1261.304688 1150.105469 1264.003906 C 1152.175781 1265.710938 1153.882812 1266.789062 1154.78125 1268.585938 C 1155.769531 1270.476562 1155.949219 1273.441406 1155.769531 1275.148438 C 1155.679688 1276.410156 1155.230469 1277.398438 1154.691406 1278.386719 C 1154.152344 1279.285156 1153.613281 1280.183594 1152.625 1280.992188 C 1151.1875 1282.070312 1148.667969 1283.511719 1146.601562 1283.691406 C 1144.441406 1283.871094 1141.65625 1282.972656 1140.128906 1282.160156 C 1138.960938 1281.621094 1138.328125 1280.992188 1137.609375 1280.003906 C 1136.53125 1278.476562 1135.273438 1275.867188 1135.183594 1273.800781 C 1135.09375 1271.644531 1135.902344 1269.125 1137.070312 1267.417969 C 1138.238281 1265.710938 1140.398438 1264.09375 1142.375 1263.460938 C 1144.441406 1262.832031 1147.320312 1263.101562 1149.027344 1263.550781 C 1150.285156 1263.914062 1151.097656 1264.273438 1151.996094 1265.171875 C 1153.253906 1266.429688 1155.140625 1268.675781 1155.589844 1270.746094 C 1156.128906 1272.722656 1155.949219 1275.417969 1155.140625 1277.308594 C 1154.332031 1279.285156 1152.265625 1281.351562 1150.824219 1282.339844 C 1149.746094 1283.0625 1148.9375 1283.332031 1147.679688 1283.511719 C 1145.882812 1283.78125 1143.632812 1283.691406 1141.117188 1282.703125 C 1136.800781 1281.171875 1131.765625 1276.046875 1125.292969 1272.183594 C 1115.585938 1266.609375 1096.347656 1258.609375 1087.984375 1253.394531 C 1083.402344 1250.605469 1081.691406 1248.449219 1077.828125 1245.933594 C 1073.242188 1242.875 1065.960938 1239.820312 1062.003906 1236.582031 C 1059.21875 1234.335938 1058.320312 1231.1875 1055.621094 1229.660156 C 1052.925781 1228.042969 1047.980469 1228.761719 1045.914062 1227.234375 C 1044.476562 1226.242188 1043.84375 1224.804688 1043.394531 1223.097656 C 1042.855469 1221.121094 1042.855469 1217.972656 1043.753906 1215.996094 C 1044.65625 1213.929688 1046.992188 1211.859375 1048.789062 1210.871094 C 1050.316406 1210.0625 1052.027344 1209.882812 1053.554688 1209.972656 C 1055.082031 1210.0625 1056.160156 1210.242188 1058.140625 1211.320312 C 1063.082031 1214.019531 1072.253906 1225.253906 1080.792969 1230.558594 C 1089.695312 1236.042969 1100.210938 1237.75 1110.730469 1243.324219 C 1123.585938 1250.066406 1144.621094 1263.730469 1151.636719 1269.574219 C 1154.421875 1271.914062 1155.949219 1273.261719 1156.847656 1275.148438 C 1157.570312 1276.5 1157.660156 1277.847656 1157.570312 1279.195312 C 1157.480469 1280.542969 1157.121094 1281.980469 1156.308594 1283.152344 C 1155.320312 1284.589844 1153.074219 1286.296875 1151.457031 1286.925781 C 1150.105469 1287.464844 1148.578125 1287.375 1147.320312 1287.105469 C 1145.972656 1286.925781 1143.542969 1285.398438 1143.542969 1285.398438 " clip-rule="nonzero"/></clipPath><clipPath id="f5c331da91"><path d="M 1121.613281 1262.296875 L 1158.21875 1262.296875 L 1158.21875 1287.246094 L 1121.613281 1287.246094 Z M 1121.613281 1262.296875 " clip-rule="nonzero"/></clipPath><clipPath id="6acacfbccc"><path d="M 1146.152344 1286.65625 C 1124.933594 1278.476562 1123.675781 1277.488281 1122.777344 1275.867188 C 1121.878906 1274.25 1121.519531 1271.914062 1121.699219 1270.117188 C 1121.96875 1268.316406 1123.046875 1266.25 1124.394531 1264.902344 C 1125.652344 1263.640625 1127.8125 1262.652344 1129.609375 1262.382812 C 1131.40625 1262.203125 1133.746094 1262.652344 1135.273438 1263.550781 C 1136.890625 1264.453125 1138.421875 1266.519531 1139.140625 1267.957031 C 1139.679688 1268.945312 1139.769531 1269.84375 1139.859375 1270.746094 C 1139.859375 1271.734375 1139.949219 1272.632812 1139.589844 1273.710938 C 1139.050781 1275.148438 1137.789062 1277.488281 1136.351562 1278.566406 C 1134.914062 1279.734375 1132.488281 1280.363281 1130.867188 1280.542969 C 1129.789062 1280.632812 1128.890625 1280.363281 1127.992188 1280.09375 C 1127.09375 1279.824219 1126.195312 1279.464844 1125.382812 1278.746094 C 1124.214844 1277.757812 1122.507812 1275.777344 1122.058594 1274.070312 C 1121.519531 1272.273438 1121.609375 1269.933594 1122.238281 1268.226562 C 1122.867188 1266.519531 1124.394531 1264.722656 1125.925781 1263.730469 C 1127.453125 1262.742188 1129.429688 1262.292969 1131.585938 1262.382812 C 1134.375 1262.5625 1137.699219 1264.453125 1141.117188 1265.800781 C 1145.253906 1267.417969 1151.636719 1269.214844 1154.421875 1271.554688 C 1156.308594 1273.082031 1157.390625 1274.96875 1157.839844 1276.679688 C 1158.289062 1278.117188 1158.199219 1279.464844 1157.75 1280.8125 C 1157.210938 1282.519531 1155.589844 1284.769531 1154.242188 1285.847656 C 1153.074219 1286.746094 1151.636719 1287.105469 1150.285156 1287.195312 C 1148.9375 1287.375 1146.152344 1286.65625 1146.152344 1286.65625 " clip-rule="nonzero"/></clipPath><clipPath id="97ba49e7a9"><path d="M 958.394531 1152.300781 L 1151.679688 1152.300781 L 1151.679688 1289.398438 L 958.394531 1289.398438 Z M 958.394531 1152.300781 " clip-rule="nonzero"/></clipPath><clipPath id="5b665928e1"><path d="M 1138.238281 1288.003906 C 1120.800781 1275.417969 1114.058594 1271.195312 1109.113281 1269.125 C 1105.605469 1267.6875 1103.089844 1267.957031 1099.671875 1266.609375 C 1095.089844 1264.632812 1089.515625 1261.125 1084.480469 1257.890625 C 1079.085938 1254.472656 1073.78125 1249.976562 1068.296875 1246.382812 C 1062.8125 1242.785156 1055.980469 1239.820312 1051.308594 1236.3125 C 1047.621094 1233.527344 1046.09375 1230.828125 1042.136719 1227.59375 C 1036.023438 1222.558594 1023.4375 1213.65625 1017.324219 1209.972656 C 1013.910156 1207.90625 1012.648438 1207.996094 1008.964844 1205.746094 C 1000.242188 1200.351562 975.339844 1181.5625 967.339844 1174.820312 C 963.835938 1171.945312 961.585938 1170.597656 960.148438 1168.167969 C 958.980469 1166.101562 958.621094 1163.492188 958.710938 1161.695312 C 958.710938 1160.4375 958.980469 1159.628906 959.609375 1158.550781 C 960.417969 1156.929688 962.574219 1154.683594 964.105469 1153.695312 C 965.09375 1152.976562 965.992188 1152.707031 967.25 1152.617188 C 968.957031 1152.4375 971.925781 1152.707031 973.722656 1153.605469 C 975.523438 1154.59375 977.410156 1156.480469 978.308594 1158.371094 C 979.117188 1160.257812 979.207031 1163.222656 979.027344 1164.933594 C 978.847656 1166.191406 978.578125 1167 977.769531 1168.078125 C 976.78125 1169.515625 974.710938 1171.585938 972.824219 1172.304688 C 970.847656 1173.113281 967.96875 1173.023438 966.261719 1172.753906 C 965.003906 1172.484375 964.105469 1171.945312 963.207031 1171.316406 C 962.304688 1170.6875 961.496094 1170.148438 960.777344 1169.066406 C 959.789062 1167.539062 958.621094 1164.933594 958.621094 1162.863281 C 958.621094 1160.796875 959.429688 1158.28125 960.6875 1156.570312 C 961.945312 1154.953125 964.464844 1153.515625 966.171875 1152.886719 C 967.339844 1152.4375 968.238281 1152.347656 969.410156 1152.527344 C 971.207031 1152.707031 973.273438 1153.515625 975.613281 1154.863281 C 979.566406 1157.289062 984.691406 1162.863281 990.085938 1167.179688 C 996.648438 1172.394531 1006.625 1179.675781 1012.199219 1183.722656 C 1015.617188 1186.148438 1017.59375 1187.855469 1020.472656 1189.566406 C 1023.4375 1191.183594 1025.957031 1191.363281 1029.730469 1193.699219 C 1037.28125 1198.375 1051.847656 1212.398438 1061.285156 1219.050781 C 1068.296875 1223.90625 1076.121094 1227.234375 1080.613281 1230.738281 C 1083.402344 1232.808594 1084.121094 1234.515625 1086.726562 1236.671875 C 1090.773438 1239.910156 1097.246094 1244.582031 1102.730469 1247.460938 C 1108.035156 1250.15625 1113.066406 1250.425781 1119.089844 1253.664062 C 1127.722656 1258.25 1144.441406 1269.125 1148.847656 1274.339844 C 1150.644531 1276.496094 1151.277344 1278.027344 1151.367188 1280.003906 C 1151.457031 1281.890625 1150.734375 1284.320312 1149.566406 1285.847656 C 1148.398438 1287.375 1146.152344 1288.722656 1144.261719 1289.085938 C 1142.375 1289.445312 1138.238281 1288.003906 1138.238281 1288.003906 " clip-rule="nonzero"/></clipPath></defs><g clip-path="url(#c052f5f175)"><path fill="#000000" d="M 287.246094 365.621094 L 450.253906 365.621094 L 450.253906 1288.289062 L 287.246094 1288.289062 Z M 287.246094 365.621094 " fill-opacity="1" fill-rule="nonzero"/></g><g clip-path="url(#9f3b8f5f8f)"><g clip-path="url(#400390c093)"><g clip-path="url(#8566877f78)"><path fill="#000000" d="M 334.457031 474.464844 L 449.722656 359.199219 L 1272.34375 1181.820312 L 1157.078125 1297.085938 Z M 334.457031 474.464844 " fill-opacity="1" fill-rule="nonzero"/></g></g></g><g clip-path="url(#8725d19c29)"><path fill="#000000" d="M 301.628906 1074.945312 L 523.492188 1074.945312 L 523.492188 1288.464844 L 301.628906 1288.464844 Z M 301.628906 1074.945312 " fill-opacity="1" fill-rule="nonzero"/></g><g clip-path="url(#7321bb8f3c)"><path fill="#000000" d="M 1145.210938 1232.1875 L 1330.089844 1232.1875 L 1330.089844 1288.464844 L 1145.210938 1288.464844 Z M 1145.210938 1232.1875 " fill-opacity="1" fill-rule="nonzero"/></g><g clip-path="url(#d9f0232739)"><g clip-path="url(#60288bd80c)"><path fill="#000000" d="M 491.679688 1149.378906 L 520.269531 1149.378906 L 520.269531 1177.96875 L 491.679688 1177.96875 Z M 491.679688 1149.378906 " fill-opacity="1" fill-rule="nonzero"/></g></g><g clip-path="url(#c420fac165)"><g clip-path="url(#ebe13f25e7)"><path fill="#000000" d="M 506.875 1064.515625 L 1185.203125 1064.515625 L 1185.203125 1296.90625 L 506.875 1296.90625 Z M 506.875 1064.515625 " fill-opacity="1" fill-rule="nonzero"/></g></g><g clip-path="url(#600d20e42e)"><g clip-path="url(#0ce49ab296)"><path fill="#000000" d="M 480.175781 943.597656 L 893.628906 943.597656 L 893.628906 1105.6875 L 480.175781 1105.6875 Z M 480.175781 943.597656 " fill-opacity="1" fill-rule="nonzero"/></g></g><g clip-path="url(#9546bd48b3)"><g clip-path="url(#2de2ab5331)"><g clip-path="url(#90f7b8ae6c)"><path fill="#000000" d="M 1173.296875 1166.132812 L 1295.714844 1126.558594 L 1330.292969 1233.515625 L 1207.875 1273.09375 Z M 1173.296875 1166.132812 " fill-opacity="1" fill-rule="nonzero"/></g></g></g><g clip-path="url(#b7b717acc0)"><g clip-path="url(#096a11ae49)"><path fill="#000000" d="M 484.128906 964.546875 L 1145.183594 964.546875 L 1145.183594 1257.347656 L 484.128906 1257.347656 Z M 484.128906 964.546875 " fill-opacity="1" fill-rule="nonzero"/></g></g><g clip-path="url(#603e2e9af1)"><g clip-path="url(#8acf1b78b4)"><g clip-path="url(#ac69acd63e)"><path fill="#000000" d="M 150 257.214844 L 493.785156 210.925781 L 523.632812 432.609375 L 179.847656 478.898438 Z M 150 257.214844 " fill-opacity="1" fill-rule="nonzero"/></g></g></g><g clip-path="url(#7199e93118)"><g clip-path="url(#83de2dfd35)"><path fill="#000000" d="M 173.667969 232.96875 L 429.964844 232.96875 L 429.964844 456.902344 L 173.667969 456.902344 Z M 173.667969 232.96875 " fill-opacity="1" fill-rule="nonzero"/></g></g><g clip-path="url(#97a28e946c)"><g clip-path="url(#1649e9109d)"><g clip-path="url(#4b5c656e12)"><path fill="#000000" d="M 173.667969 229.34375 L 423.007812 170.03125 L 474.832031 387.882812 L 225.492188 447.195312 Z M 173.667969 229.34375 " fill-opacity="1" fill-rule="nonzero"/></g></g></g><g clip-path="url(#905b621f7d)"><path fill="#ffffff" d="M 166.460938 199.085938 L 287.246094 199.085938 L 287.246094 738.367188 L 166.460938 738.367188 Z M 166.460938 199.085938 " fill-opacity="1" fill-rule="nonzero"/></g><g clip-path="url(#a1eb0b5552)"><g clip-path="url(#43ce9ed87d)"><path fill="#000000" d="M 523.324219 987.378906 L 567.285156 987.378906 L 567.285156 1034.261719 L 523.324219 1034.261719 Z M 523.324219 987.378906 " fill-opacity="1" fill-rule="nonzero"/></g></g><g clip-path="url(#f0749090f0)"><g clip-path="url(#ccaa76b282)"><path fill="#ffffff" d="M 937.132812 1211.679688 L 1189.257812 1211.679688 L 1189.257812 1321.449219 L 937.132812 1321.449219 Z M 937.132812 1211.679688 " fill-opacity="1" fill-rule="nonzero"/></g></g><g clip-path="url(#d584a66087)"><g clip-path="url(#00a7d6e0f0)"><path fill="#000000" d="M 507.59375 1192.53125 L 533.125 1192.53125 L 533.125 1232.226562 L 507.59375 1232.226562 Z M 507.59375 1192.53125 " fill-opacity="1" fill-rule="nonzero"/></g></g><g clip-path="url(#26c84ac575)"><g clip-path="url(#0488a7b054)"><g clip-path="url(#8f6f2309bc)"><path fill="#000000" d="M 1417.867188 1153.058594 L 1356.09375 1415.996094 L 1126.359375 1362.023438 L 1188.132812 1099.085938 Z M 1417.867188 1153.058594 " fill-opacity="1" fill-rule="nonzero"/></g></g></g><g clip-path="url(#d74799b500)"><path fill="#ffffff" d="M 1126.449219 1288.464844 L 1490.109375 1288.464844 L 1490.109375 1513.335938 L 1126.449219 1513.335938 Z M 1126.449219 1288.464844 " fill-opacity="1" fill-rule="nonzero"/></g><g clip-path="url(#0c0282e05e)"><g clip-path="url(#789604625b)"><path fill="#000000" d="M 1132.035156 1261.304688 L 1163.132812 1261.304688 L 1163.132812 1290.253906 L 1132.035156 1290.253906 Z M 1132.035156 1261.304688 " fill-opacity="1" fill-rule="nonzero"/></g></g><g clip-path="url(#e1529eb20a)"><g clip-path="url(#d832fab0dc)"><path fill="#000000" d="M 1039.351562 1206.375 L 1161.359375 1206.375 L 1161.359375 1290.792969 L 1039.351562 1290.792969 Z M 1039.351562 1206.375 " fill-opacity="1" fill-rule="nonzero"/></g></g><g clip-path="url(#f5c331da91)"><g clip-path="url(#6acacfbccc)"><path fill="#000000" d="M 1118.101562 1258.789062 L 1161.480469 1258.789062 L 1161.480469 1290.882812 L 1118.101562 1290.882812 Z M 1118.101562 1258.789062 " fill-opacity="1" fill-rule="nonzero"/></g></g><g clip-path="url(#97ba49e7a9)"><g clip-path="url(#5b665928e1)"><path fill="#000000" d="M 955.023438 1148.929688 L 1155.050781 1148.929688 L 1155.050781 1292.769531 L 955.023438 1292.769531 Z M 955.023438 1148.929688 " fill-opacity="1" fill-rule="nonzero"/></g></g></svg>