<?xml version="1.0" encoding="UTF-8" standalone="no"?>
<!-- Created with Inkscape (http://www.inkscape.org/) -->

<svg
   width="4135.2373"
   height="689.44678"
   viewBox="0 0 1094.1149 182.41613"
   version="1.1"
   id="svg1"
   xml:space="preserve"
   xmlns:xlink="http://www.w3.org/1999/xlink"
   xmlns="http://www.w3.org/2000/svg"
   xmlns:svg="http://www.w3.org/2000/svg"><defs
     id="defs1"><linearGradient
       id="linearGradient4"><stop
         style="stop-color:#800080;stop-opacity:1;"
         offset="0"
         id="stop4" /><stop
         style="stop-color:#310086;stop-opacity:0.89803922;"
         offset="1"
         id="stop5" /></linearGradient><linearGradient
       id="linearGradient1"><stop
         style="stop-color:#800080;stop-opacity:1;"
         offset="0"
         id="stop1" /><stop
         style="stop-color:#310085;stop-opacity:0.8994565;"
         offset="1"
         id="stop2" /></linearGradient><rect
       x="979.17236"
       y="767.45941"
       width="1005.6365"
       height="321.9801"
       id="rect1-2-4" /><linearGradient
       xlink:href="#linearGradient1"
       id="linearGradient2"
       gradientUnits="userSpaceOnUse"
       x1="994.92163"
       y1="772.9729"
       x2="1013.4286"
       y2="773.33441" /><linearGradient
       xlink:href="#linearGradient4"
       id="linearGradient11"
       gradientUnits="userSpaceOnUse"
       gradientTransform="matrix(0.4742572,0,0,0.4742572,-307.56318,767.29525)"
       x1="2454.8765"
       y1="174.99132"
       x2="2883.355"
       y2="174.99132" /></defs><g
     id="layer1"
     transform="translate(34.228611,-761.1098)"><text
       xml:space="preserve"
       transform="matrix(18.886319,0,0,18.886319,-18527.181,-13758.112)"
       id="text1-7-0"
       style="font-style:normal;font-variant:normal;font-weight:normal;font-stretch:normal;font-size:12px;font-family:nebulax;-inkscape-font-specification:'nebulax, Normal';font-variant-ligatures:normal;font-variant-caps:normal;font-variant-numeric:normal;font-variant-east-asian:normal;white-space:pre;shape-inside:url(#rect1-2-4);display:inline;fill:url(#linearGradient2);fill-opacity:1;stroke-linecap:round;stroke-linejoin:round;paint-order:stroke fill markers"><tspan
         x="979.17188"
         y="778.55898"
         id="tspan2">Aleph</tspan></text><path
       style="fill:url(#linearGradient11);stroke:none;stroke-width:0.474257"
       d="m 889.05295,821.83089 c -6.63155,16.16848 -9.10377,34.15303 3.66366,48.37239 14.56606,16.22264 48.85441,17.71191 59.1295,-4.30708 h 2.20321 c 1.85435,8.40186 6.95868,8.40186 8.81312,0 h 2.20321 c 13.80233,29.57803 58.64745,16.35299 67.09595,-9.9147 2.0665,-6.42522 2.0464,-15.50725 0.3672,-22.03265 -0.8639,-3.35676 -4.3973,-8.35337 -2.602,-11.76011 4.8378,-9.17959 17.7423,-14.72935 23.402,-24.59378 4.9412,-8.61175 6.4968,-17.76812 6.4773,-27.54082 -0.01,-2.28689 0.7978,-8.33646 -2.5059,-8.89977 -4.0199,-0.68542 -9.1071,9.47012 -11.8323,11.874 -9.8016,8.64612 -21.8598,14.19167 -34.1336,18.32317 -17.95887,6.04515 -44.46534,9.44329 -51.77681,29.37771 h -2.20322 c -9.69484,-26.4326 -54.44566,-26.56308 -76.0127,-40.42805 -5.79886,-3.72796 -11.49108,-7.84477 -15.47731,-13.5477 -1.37165,-1.96243 -3.20556,-6.11869 -6.25276,-5.59913 -4.45119,0.75895 -2.63535,15.62133 -2.17522,18.81446 2.53699,17.60611 15.70194,34.29114 31.61667,41.86206 m -25.33756,-47.37022 c 22.39557,21.4191 51.23633,21.72098 77.1135,35.5591 5.96045,3.18744 9.44969,9.27263 12.36114,15.11516 1.02677,2.06067 2.36591,6.38284 5.2659,6.38284 2.89989,0 4.23903,-4.32219 5.2658,-6.38284 2.91632,-5.85222 6.40274,-11.91041 12.36111,-15.11601 15.048,-8.09577 33.70686,-10.84435 49.57266,-17.32861 10.7696,-4.40147 19.1884,-11.76627 28.6424,-18.22964 -6.0214,31.0495 -29.8777,43.86011 -56.18323,57.01291 -14.22794,7.11399 -30.82666,14.0127 -38.55718,28.91446 h -2.20322 c -13.80165,-26.60467 -53.95756,-32.81286 -76.00847,-51.18598 -8.56645,-7.13769 -20.48544,-22.65848 -17.63041,-34.74139 m 31.94738,51.77675 c -2.29813,8.03909 -5.28416,14.4767 -4.2025,23.13428 1.91739,15.34725 18.81482,27.53072 33.94661,24.82585 11.4702,-2.05036 15.35028,-10.37842 24.23592,-16.01278 -8.47659,19.27174 -35.27372,23.64493 -50.57231,9.5798 -10.6731,-9.81262 -14.40575,-30.63491 -3.40772,-41.52715 m 126.68783,0 c 7.4105,12.75936 7.5083,29.53841 -3.5089,40.55641 -15.088,15.08912 -42.86724,11.1831 -51.57274,-8.60906 6.12707,3.88514 9.51469,10.61681 16.5245,13.73811 16.36904,7.2888 37.17554,-2.56727 41.27894,-20.3479 2.1072,-9.13083 -4.061,-17.33511 -2.7218,-25.33756 m -120.07802,3.30489 c 9.13859,5.59784 3.2148,11.39503 7.24048,19.82939 6.40153,13.41221 23.04867,15.70684 32.41835,4.40654 h 1.10157 c -11.38218,33.47766 -64.59069,2.45496 -40.7604,-24.23593 m 113.46822,0 c 4.3289,9.22178 6.1121,18.2087 0.6978,27.53658 -9.9156,17.08327 -33.68636,13.14197 -42.55991,-2.19902 12.12437,6.71654 25.98111,10.28676 33.51991,-5.50817 4.1722,-8.7412 -2.4347,-15.25771 8.3422,-19.82939 m -77.1143,18.72777 c -8.27323,14.30373 -29.44603,3.14337 -23.1343,-12.11798 l 23.1343,12.11798 m 63.8947,-11.01633 c 2.3981,14.59123 -15.88517,25.45426 -24.2359,11.01633 l 24.2359,-11.01633 m -61.69149,42.44516 c -23.45285,5.43042 -1.27705,36.03871 5.87539,46.7871 2.40644,3.61626 7.27891,14.3078 12.81251,12.83877 4.46225,-1.18461 7.60225,-8.20726 9.95465,-11.73713 6.16123,-9.24545 23.53273,-31.20728 15.41254,-42.72823 -6.57689,-9.33151 -34.11238,-7.46271 -44.05509,-5.16051 m 7.71145,5.28292 c 6.35609,-0.48432 28.14725,-2.58035 31.27844,4.42776 3.99094,8.93286 -9.19079,24.63389 -13.59365,31.56824 -1.63826,2.58022 -4.07473,8.58528 -7.77002,8.58528 -4.42697,0 -8.0061,-8.7528 -9.97,-11.89016 -6.7865,-10.84168 -21.47737,-31.05042 0.055,-32.69112 z"
       id="path3-9-7" /></g></svg>
