<?xml version="1.0" encoding="UTF-8" standalone="no"?>
<!-- Created with Inkscape (http://www.inkscape.org/) -->

<svg
   width="2000.0001"
   height="2000.0001"
   viewBox="0 0 529.1667 529.1667"
   version="1.1"
   id="svg1"
   xml:space="preserve"
   inkscape:version="1.3.2 (091e20e, 2023-11-25, custom)"
   sodipodi:docname="Logo_Aleph.svg"
   inkscape:export-filename="Logo_AlephCompleto.png"
   inkscape:export-xdpi="96"
   inkscape:export-ydpi="96"
   xmlns:inkscape="http://www.inkscape.org/namespaces/inkscape"
   xmlns:sodipodi="http://sodipodi.sourceforge.net/DTD/sodipodi-0.dtd"
   xmlns:xlink="http://www.w3.org/1999/xlink"
   xmlns="http://www.w3.org/2000/svg"
   xmlns:svg="http://www.w3.org/2000/svg"><sodipodi:namedview
     id="namedview1"
     pagecolor="#ffffff"
     bordercolor="#000000"
     borderopacity="0.25"
     inkscape:showpageshadow="2"
     inkscape:pageopacity="0.0"
     inkscape:pagecheckerboard="0"
     inkscape:deskcolor="#d1d1d1"
     inkscape:document-units="mm"
     inkscape:zoom="0.16031672"
     inkscape:cx="6930.0319"
     inkscape:cy="707.97356"
     inkscape:window-width="1366"
     inkscape:window-height="705"
     inkscape:window-x="1912"
     inkscape:window-y="-8"
     inkscape:window-maximized="1"
     inkscape:current-layer="layer1"
     showgrid="false" /><defs
     id="defs1"><linearGradient
       id="linearGradient4"
       inkscape:collect="always"><stop
         style="stop-color:#800080;stop-opacity:1;"
         offset="0"
         id="stop4" /><stop
         style="stop-color:#310086;stop-opacity:0.89803922;"
         offset="1"
         id="stop5" /></linearGradient><linearGradient
       id="linearGradient1"
       inkscape:collect="always"><stop
         style="stop-color:#800080;stop-opacity:1;"
         offset="0"
         id="stop1" /><stop
         style="stop-color:#310085;stop-opacity:0.8994565;"
         offset="1"
         id="stop2" /></linearGradient><rect
       x="979.17236"
       y="767.45941"
       width="1005.6365"
       height="321.9801"
       id="rect1-2-2-5-5" /><linearGradient
       inkscape:collect="always"
       xlink:href="#linearGradient1"
       id="linearGradient9"
       gradientUnits="userSpaceOnUse"
       x1="994.92163"
       y1="772.9729"
       x2="1013.4286"
       y2="773.33441" /><linearGradient
       inkscape:collect="always"
       xlink:href="#linearGradient4"
       id="linearGradient10"
       gradientUnits="userSpaceOnUse"
       gradientTransform="translate(-2399.3131,41.138095)"
       x1="2454.8765"
       y1="174.99132"
       x2="2883.355"
       y2="174.99132" /></defs><g
     inkscape:label="Capa 1"
     inkscape:groupmode="layer"
     id="layer1"><text
       xml:space="preserve"
       transform="matrix(9.8570975,0,0,9.8570975,-9615.601,-7158.9345)"
       id="text1-7-1-6-3"
       style="font-style:normal;font-variant:normal;font-weight:normal;font-stretch:normal;font-size:12px;font-family:nebulax;-inkscape-font-specification:'nebulax, Normal';font-variant-ligatures:normal;font-variant-caps:normal;font-variant-numeric:normal;font-variant-east-asian:normal;white-space:pre;shape-inside:url(#rect1-2-2-5-5);display:inline;fill:url(#linearGradient9);fill-opacity:1;stroke-linecap:round;stroke-linejoin:round;paint-order:stroke fill markers"
       inkscape:export-filename="TextoAleph.png"
       inkscape:export-xdpi="96"
       inkscape:export-ydpi="96"><tspan
         x="979.17188"
         y="778.55898"
         id="tspan1">Aleph</tspan></text><path
       style="fill:url(#linearGradient10);stroke:none"
       d="m 123.82453,156.12978 c -13.9831,34.09224 -19.1959,72.01374 7.725,101.99612 30.7135,34.20641 103.0125,37.34663 124.678,-9.08173 h 4.6457 c 3.91,17.71581 14.6729,17.71581 18.5829,0 h 4.6457 c 29.1032,62.36706 123.6617,34.48126 141.4758,-20.90574 4.3575,-13.54797 4.315,-32.69798 0.7743,-46.4572 -1.8214,-7.07792 -9.272,-17.61357 -5.4863,-24.79688 10.2007,-19.35572 37.4107,-31.05773 49.3446,-51.85748 10.4185,-18.158387 13.6987,-37.465145 13.6576,-58.071485 -0.01,-4.82205 1.6822,-17.57793 -5.2838,-18.7657 -8.4762,-1.44526 -19.203,19.96832 -24.9492,25.03706 -20.6674,18.23085 -46.0928,29.923978 -71.9728,38.635478 -37.8674,12.746587 -93.7578,19.911767 -109.1745,61.944697 h -4.6457 C 247.39973,98.072193 153.04003,97.797063 107.56453,68.561925 95.337334,60.701325 83.334934,52.020765 74.929732,39.995775 c -2.8922,-4.13788 -6.7591,-12.90163 -13.1843,-11.80609 -9.3856,1.6003 -5.5568,32.93852 -4.5866,39.67144 5.3494,37.123535 33.108502,72.304925 66.665698,88.268655 M 70.398732,56.246825 c 47.222398,45.163445 108.034898,45.799985 162.598398,74.978525 12.568,6.7209 19.9252,19.55188 26.0641,31.87122 2.1652,4.34503 4.9887,13.45859 11.1035,13.45859 6.1148,0 8.9383,-9.1136 11.1035,-13.45859 6.1491,-12.33977 13.5004,-25.11383 26.064,-31.87303 31.7296,-17.07043 71.0729,-22.86596 104.5269,-36.538417 22.7084,-9.28078 40.46,-24.809898 60.3944,-38.438298 -12.6966,65.469745 -62.9989,92.481695 -118.4659,120.215155 -30.0005,15.00028 -64.9998,29.54662 -81.3001,60.96789 h -4.6457 C 238.74033,181.33232 154.06913,168.24196 107.57353,129.50114 89.510634,114.4509 64.378732,81.724373 70.398732,56.246825 M 137.76173,165.42122 c -4.8458,16.95091 -11.142,30.52501 -8.8613,48.78005 4.043,32.36059 39.6723,58.05016 71.5785,52.34679 24.1856,-4.32329 32.367,-21.88353 51.1029,-33.76391 -17.8734,40.63562 -74.3767,49.85677 -106.6347,20.19957 -22.5049,-20.69049 -30.3755,-64.59555 -7.1854,-87.5625 m 267.1289,0 c 15.6256,26.90389 15.8316,62.28352 -7.3988,85.51566 -31.8139,31.81631 -90.3882,23.58023 -108.7442,-18.15273 12.9192,8.19205 20.0624,22.38618 34.8429,28.96764 34.515,15.36886 78.3869,-5.41326 87.0391,-42.9048 4.4431,-19.25289 -8.5628,-36.55213 -5.739,-53.42577 m -253.1918,6.96858 c 19.2693,11.80339 6.7787,24.02711 15.2671,41.81147 13.498,28.28043 48.5994,33.11879 68.3559,9.29144 h 2.3228 c -24,70.58968 -136.1934,5.17644 -85.9458,-51.10291 m 239.2546,0 c 9.1279,19.44468 12.8876,38.39414 1.4715,58.06252 -20.9078,36.02113 -71.0299,27.71065 -89.7402,-4.63675 25.5648,14.16224 54.7827,21.69025 70.6788,-11.6143 8.7972,-18.43135 -5.1337,-32.17183 17.5899,-41.81147 m -162.6002,39.48861 c -17.4445,30.16028 -62.0887,6.628 -48.78,-25.55146 l 48.78,25.55146 m 134.7259,-23.2286 c 5.0565,30.7665 -33.4948,53.67187 -51.1029,23.2286 l 51.1029,-23.2286 m -130.0802,89.49821 c -49.4517,11.45038 -2.6928,75.98981 12.3886,98.65343 5.0741,7.62507 15.3479,30.16889 27.0158,27.07136 9.4091,-2.49788 16.0299,-17.30551 20.99,-24.7485 12.9914,-19.49457 49.6203,-65.80244 32.4985,-90.09507 -13.868,-19.67602 -71.9281,-15.73555 -92.8929,-10.88122 m 16.26,11.13933 c 13.4022,-1.0212 59.3503,-5.44082 65.9524,9.33624 8.4153,18.83545 -19.3793,51.94201 -28.6629,66.56356 -3.4544,5.44055 -8.5918,18.10254 -16.3837,18.10254 -9.3345,0 -16.8813,-18.45581 -21.0223,-25.07112 -14.3097,-22.86033 -45.2863,-65.47169 0.1165,-68.93122 z"
       id="path3-9"
       inkscape:export-filename="SoloBuhoAleph.png"
       inkscape:export-xdpi="96"
       inkscape:export-ydpi="96" /></g></svg>
